# Blender v2.93.0 OBJ File: ''
# www.blender.org
mtllib map.mtl
o obj_0
v -91.000000 90.999992 31.000015
v -91.000000 91.000000 0.000015
v -40.000000 91.000000 0.000015
v -40.000000 90.999992 31.000015
v -38.000000 90.999992 31.000015
v -38.000000 91.000000 0.000015
v 14.000000 91.000000 0.000015
v 14.000000 90.999992 31.000015
v 16.000000 90.999992 31.000015
v 16.000000 91.000000 0.000015
v 73.000000 90.999992 31.000015
v 73.000000 91.000000 0.000015
v 75.000000 90.999992 31.000015
v 75.000000 91.000000 0.000015
v 91.000000 91.000000 0.000015
v 91.000000 90.999992 31.000015
v 93.000000 92.999992 31.000015
v 93.000000 93.000000 0.000015
v -93.000000 93.000000 0.000015
v -93.000000 92.999992 31.000015
v -69.000000 43.500000 0.000007
v -69.000000 43.499996 31.000008
v -70.000000 43.499996 31.000008
v -70.000000 43.500000 0.000007
v -40.000000 76.499992 31.000013
v -68.000000 78.999992 31.000013
v -68.000000 79.000000 0.000013
v -70.000000 79.000000 0.000013
v -70.000000 78.999992 31.000013
v -12.000000 75.999992 31.000011
v -12.000000 76.000000 0.000012
v -14.000000 76.000000 0.000012
v -14.000000 75.999992 31.000011
v -38.000000 76.500000 0.000012
v -38.000000 76.499992 31.000013
v -40.000000 76.500000 0.000012
v 16.000000 57.999996 31.000010
v 16.000000 58.000000 0.000009
v -38.000000 58.999996 31.000010
v -38.000000 59.000000 0.000010
v -40.000000 59.000000 0.000010
v -40.000000 58.999996 31.000010
v -40.000000 44.999996 31.000008
v -40.000000 45.000000 0.000007
v -68.000000 45.000000 0.000007
v -68.000000 44.999996 31.000008
v 14.000000 57.999996 31.000010
v 14.000000 58.000000 0.000009
v -12.000000 38.000000 0.000006
v -38.000000 42.999996 31.000008
v 31.500000 1.999995 31.000000
v 31.500000 2.000000 0.000000
v 31.500000 0.000000 0.000000
v 31.500000 -0.000005 31.000000
v 90.500000 35.999996 31.000006
v 90.500000 36.000000 0.000006
v 90.500000 38.000000 0.000006
v 90.500000 37.999996 31.000006
v -14.000000 35.999996 31.000006
v -14.000000 36.000000 0.000006
v 15.000000 13.999995 31.000002
v 15.000000 14.000000 0.000002
v 15.000000 12.000000 0.000002
v 15.000000 11.999995 31.000002
v 40.000000 36.000000 0.000006
v -12.000000 37.999996 31.000006
v 40.000000 38.000000 0.000006
v -30.000000 -0.000005 31.000000
v -30.000000 0.000000 0.000000
v -30.000000 2.000000 0.000000
v -30.000000 1.999995 31.000000
v -38.000000 43.000000 0.000007
v -69.000000 43.000000 0.000007
v -69.000000 42.999996 31.000008
v -57.000000 42.999996 31.000008
v -57.000000 43.000000 0.000007
v -57.000000 2.000000 0.000000
v -57.000000 1.999995 31.000000
v -55.000000 1.999995 31.000000
v -55.000000 2.000000 0.000000
v -55.000000 43.000000 0.000007
v -55.000000 42.999996 31.000008
v -91.000000 2.000000 0.000000
v -91.000000 1.999995 31.000000
v 71.000000 12.000000 0.000002
v 42.000000 35.750000 0.000006
v 40.000000 75.250000 0.000012
v 42.000000 75.250000 0.000012
v 40.000000 35.750000 0.000006
v 71.000000 11.500000 0.000002
v 73.000000 11.500000 0.000002
v 71.000000 14.000000 0.000002
v 73.000000 27.000000 0.000004
v 71.000000 27.000000 0.000004
v 59.500000 36.000000 0.000006
v 59.500000 38.000000 0.000006
v 75.000000 51.500000 0.000008
v 73.000000 51.500000 0.000008
v 91.000000 0.000000 0.000000
v 91.000000 2.000000 0.000000
v -93.000000 0.000000 0.000000
v 93.000000 0.000000 0.000000
v 71.000000 11.999995 31.000002
v 42.000000 35.749996 31.000006
v 40.000000 35.749996 31.000006
v 40.000000 35.999996 31.000006
v 40.000000 37.999996 31.000006
v 42.000000 75.249992 31.000011
v 59.500000 37.999996 31.000006
v 59.500000 35.999996 31.000006
v 73.000000 11.499995 31.000002
v 71.000000 11.499995 31.000002
v 73.000000 26.999994 31.000004
v 71.000000 26.999994 31.000004
v 71.000000 13.999995 31.000002
v 75.000000 51.499996 31.000008
v 73.000000 51.499996 31.000008
v 40.000000 75.249992 31.000011
v 91.000000 1.999995 31.000000
v 91.000000 -0.000005 31.000000
v 93.000000 -0.000005 31.000000
v -93.000000 -0.000005 31.000000
v -4.000000 -92.000008 30.999985
v -4.000000 -92.000000 -0.000015
v -4.000000 -70.000000 -0.000011
v -4.000000 -70.000008 30.999989
v -4.000000 -14.000000 -0.000002
v -4.000000 -14.000005 30.999998
v -4.000000 -68.000000 -0.000011
v -4.000000 -68.000008 30.999989
v -31.000000 -58.000000 -0.000009
v -31.000000 -58.000004 30.999990
v -31.000000 -70.000000 -0.000011
v -31.000000 -70.000008 30.999989
v -91.000000 -70.000008 30.999989
v -91.000000 -70.000000 -0.000011
v -33.000000 -58.000000 -0.000009
v -33.000000 -58.000004 30.999990
v -32.000000 -38.000004 30.999994
v -32.000000 -38.000000 -0.000006
v -32.000000 -36.000000 -0.000006
v -32.000000 -36.000004 30.999994
v -72.000000 -38.000000 -0.000006
v -72.000000 -38.000004 30.999994
v -72.000000 -13.000000 -0.000002
v -72.000000 -13.000005 30.999998
v -33.000000 -68.000000 -0.000011
v -33.000000 -68.000008 30.999989
v -70.000000 -13.000005 30.999998
v -70.000000 -13.000000 -0.000002
v -70.000000 -36.000004 30.999994
v -70.000000 -36.000000 -0.000006
v -91.000000 -68.000000 -0.000011
v -91.000000 -68.000008 30.999989
v -91.000000 -92.000008 30.999985
v -91.000000 -92.000000 -0.000015
v -91.000000 -2.000000 -0.000000
v -91.000000 -2.000005 31.000000
v 91.000000 -3.000005 31.000000
v 91.000000 -3.000000 -0.000000
v 91.000000 -56.000004 30.999990
v 91.000000 -1.000000 -0.000000
v 91.000000 -1.000005 31.000000
v 91.000000 -70.000008 30.999989
v 91.000000 -70.000000 -0.000011
v 91.000000 -92.000000 -0.000015
v 91.000000 -92.000008 30.999985
v 91.000000 -58.000004 30.999990
v 91.000000 -58.000000 -0.000009
v 91.000000 -68.000000 -0.000011
v 91.000000 -68.000008 30.999989
v 91.000000 -56.000000 -0.000009
v -93.000000 -94.000000 -0.000015
v 93.000000 -94.000000 -0.000015
v -93.000000 -94.000008 30.999985
v 93.000000 -94.000008 30.999985
v -6.000000 -92.000008 30.999985
v -6.000000 -92.000000 -0.000015
v -30.000000 -2.000000 -0.000000
v 31.500000 -1.000000 -0.000000
v 31.500000 -3.000000 -0.000000
v -6.000000 -70.000000 -0.000011
v -22.500000 -70.000000 -0.000011
v -22.500000 -68.000000 -0.000011
v -6.000000 -68.000000 -0.000011
v 42.000000 -70.000000 -0.000011
v 32.000000 -70.000000 -0.000011
v 34.000000 -68.000000 -0.000011
v 42.000000 -68.000000 -0.000011
v 63.000000 -21.000000 -0.000003
v 63.000000 -56.000000 -0.000009
v 61.000000 -21.000000 -0.000003
v 32.000000 -21.000000 -0.000003
v 34.000000 -21.000000 -0.000003
v 61.000000 -58.000000 -0.000009
v 62.000000 -70.000000 -0.000011
v 62.000000 -68.000000 -0.000011
v 10.000000 -21.000000 -0.000003
v 10.000000 -68.000000 -0.000011
v 8.000000 -68.000000 -0.000011
v 8.000000 -21.000000 -0.000003
v 10.500000 -70.000000 -0.000011
v 10.500000 -68.000000 -0.000011
v -6.000000 -14.000000 -0.000002
v -30.000000 -2.000005 31.000000
v 31.500000 -1.000005 31.000000
v 31.500000 -3.000005 31.000000
v -6.000000 -14.000005 30.999998
v -22.500000 -68.000008 30.999989
v -22.500000 -70.000008 30.999989
v -6.000000 -70.000008 30.999989
v -6.000000 -68.000008 30.999989
v 42.000000 -70.000008 30.999989
v 42.000000 -68.000008 30.999989
v 32.000000 -21.000006 30.999996
v 32.000000 -70.000008 30.999989
v 34.000000 -68.000008 30.999989
v 61.000000 -21.000006 30.999996
v 34.000000 -21.000006 30.999996
v 61.000000 -58.000004 30.999990
v 62.000000 -68.000008 30.999989
v 62.000000 -70.000008 30.999989
v 63.000000 -21.000006 30.999996
v 63.000000 -56.000004 30.999990
v 10.500000 -70.000008 30.999989
v 10.500000 -68.000008 30.999989
v 10.000000 -21.000006 30.999996
v 8.000000 -21.000006 30.999996
v 8.000000 -68.000008 30.999989
v 10.000000 -68.000008 30.999989
vn 0.3015 -0.3015 0.9045
vn 0.3015 -0.3015 -0.9045
vn -0.3015 -0.3015 -0.9045
vn -0.3015 -0.3015 0.9045
vn 0.5773 0.5773 0.5773
vn 0.5773 0.5773 -0.5773
vn -0.5773 0.5773 -0.5773
vn -0.5773 0.5773 0.5773
vn -0.5773 -0.5773 0.5773
vn -0.5773 -0.5773 -0.5773
vn 0.5773 -0.5773 -0.5773
vn 0.5773 -0.5773 0.5773
vn -0.3015 0.3015 0.9045
vn -0.3015 0.3015 -0.9045
vn 0.3015 0.3015 -0.9045
vn 0.3015 0.3015 0.9045
vn 0.7071 0.0000 0.7071
vn 0.7071 0.0000 -0.7071
vn -0.7071 0.0000 -0.7071
vn -0.7071 0.0000 0.7071
usemtl color_40919
s 1
f 1//1 2//2 3//3
f 1//1 3//3 4//4
f 5//1 6//2 7//3
f 5//1 7//3 8//4
f 9//1 10//2 11//4
f 11//4 10//2 12//3
f 13//1 14//2 15//3
f 13//1 15//3 16//4
f 17//5 18//6 19//7
f 17//5 19//7 20//8
f 21//3 22//4 23//9
f 21//3 23//9 24//10
f 4//4 3//3 25//9
f 26//5 27//6 28//7
f 26//5 28//7 29//8
f 29//8 28//7 24//10
f 29//8 24//10 23//9
f 30//5 31//6 32//7
f 30//5 32//7 33//8
f 34//11 35//12 25//9
f 34//11 25//9 36//10
f 25//9 3//3 36//10
f 37//12 38//11 10//2
f 37//12 10//2 9//1
f 6//2 5//1 34//11
f 35//12 34//11 5//1
f 39//5 40//6 41//7
f 39//5 41//7 42//8
f 43//13 44//14 45//15
f 43//13 45//15 46//16
f 42//8 41//7 44//14
f 42//8 44//14 43//13
f 38//11 37//12 47//9
f 38//11 47//9 48//10
f 30//5 49//15 31//6
f 47//9 8//4 48//10
f 7//3 48//10 8//4
f 50//12 40//6 39//5
f 26//5 46//16 27//6
f 45//15 27//6 46//16
f 51//8 52//7 53//10
f 51//8 53//10 54//9
f 55//12 56//11 57//6
f 55//12 57//6 58//5
f 18//6 15//3 14//2
f 18//6 14//2 12//3
f 18//6 12//3 10//2
f 18//6 10//2 7//3
f 6//2 19//7 7//3
f 3//3 19//7 6//2
f 2//2 19//7 3//3
f 18//6 7//3 19//7
f 59//9 33//8 60//10
f 32//7 60//10 33//8
f 61//8 62//7 63//10
f 61//8 63//10 64//9
f 65//3 59//9 60//10
f 30//5 66//16 49//15
f 66//16 67//14 49//15
f 68//17 69//18 70//6
f 68//17 70//6 71//5
f 40//6 50//12 72//11
f 22//4 21//3 73//10
f 22//4 73//10 74//9
f 75//4 76//3 77//14
f 75//4 77//14 78//13
f 79//16 80//15 81//2
f 79//16 81//2 82//1
f 74//9 73//10 76//3
f 74//9 76//3 75//4
f 82//1 81//2 72//11
f 82//1 72//11 50//12
f 71//5 70//6 79//16
f 83//15 84//16 77//14
f 78//13 77//14 84//16
f 79//16 70//6 80//15
f 38//11 7//3 10//2
f 6//2 34//11 36//10
f 6//2 36//10 3//3
f 31//6 49//15 32//7
f 38//11 48//10 7//3
f 41//7 40//6 44//14
f 40//6 72//11 44//14
f 24//10 28//7 45//15
f 27//6 45//15 28//7
f 24//10 45//15 21//3
f 63//10 62//7 85//3
f 67//14 86//11 65//3
f 87//7 88//6 67//14
f 89//10 65//3 86//11
f 90//10 85//3 91//11
f 85//3 92//14 91//11
f 93//6 91//11 92//14
f 93//6 92//14 94//7
f 56//11 95//10 96//7
f 56//11 96//7 57//6
f 86//11 67//14 88//6
f 14//2 97//11 98//10
f 14//2 98//10 12//3
f 99//3 53//10 100//14
f 52//7 100//14 53//10
f 101//19 19//7 83//15
f 2//2 83//15 19//7
f 102//18 99//3 100//14
f 15//3 18//6 100//14
f 102//18 100//14 18//6
f 64//9 63//10 85//3
f 64//9 85//3 103//4
f 92//14 62//7 61//8
f 86//11 104//12 105//9
f 86//11 105//9 89//10
f 59//9 65//3 106//4
f 107//13 67//14 66//16
f 106//4 65//3 89//10
f 106//4 89//10 105//9
f 107//13 87//7 67//14
f 104//12 86//11 108//5
f 109//8 96//7 95//10
f 109//8 95//10 110//9
f 91//11 111//12 112//9
f 91//11 112//9 90//10
f 113//5 93//6 94//7
f 113//5 94//7 114//8
f 115//13 92//14 61//8
f 103//4 85//3 90//10
f 103//4 90//10 112//9
f 114//8 94//7 92//14
f 114//8 92//14 115//13
f 111//12 91//11 93//6
f 111//12 93//6 113//5
f 110//9 95//10 56//11
f 110//9 56//11 55//12
f 58//5 57//6 96//7
f 58//5 96//7 109//8
f 97//11 116//12 117//9
f 97//11 117//9 98//10
f 108//5 88//6 87//7
f 108//5 87//7 118//8
f 118//8 87//7 107//13
f 108//5 86//11 88//6
f 98//10 11//4 12//3
f 11//4 98//10 117//9
f 116//12 97//11 14//2
f 116//12 14//2 13//1
f 51//8 119//13 52//7
f 100//14 52//7 119//13
f 2//2 1//1 83//15
f 84//16 83//15 1//1
f 16//4 100//14 119//13
f 100//14 16//4 15//3
f 120//4 54//9 53//10
f 120//4 53//10 99//3
f 18//6 121//17 102//18
f 121//17 18//6 17//5
f 122//20 19//7 101//19
f 20//8 19//7 122//20
f 59//9 66//16 33//8
f 30//5 33//8 66//16
f 79//16 82//1 75//4
f 79//16 75//4 78//13
f 22//4 74//9 75//4
f 50//12 43//13 82//1
f 82//1 46//16 75//4
f 79//16 68//17 71//5
f 78//13 68//17 79//16
f 84//16 122//20 78//13
f 4//4 25//9 5//1
f 37//12 9//1 8//4
f 25//9 35//12 5//1
f 82//1 43//13 46//16
f 8//4 47//9 37//12
f 42//8 43//13 39//5
f 50//12 39//5 43//13
f 22//4 46//16 23//9
f 22//4 75//4 46//16
f 26//5 29//8 46//16
f 23//9 46//16 29//8
f 103//4 61//8 64//9
f 107//13 66//16 106//4
f 59//9 106//4 66//16
f 106//4 104//12 107//13
f 105//9 104//12 106//4
f 107//13 104//12 108//5
f 103//4 115//13 61//8
f 114//8 115//13 113//5
f 111//12 113//5 115//13
f 111//12 115//13 103//4
f 111//12 103//4 112//9
f 58//5 109//8 110//9
f 58//5 110//9 55//12
f 118//8 107//13 108//5
f 117//9 116//12 11//4
f 116//12 13//1 11//4
f 51//8 54//9 119//13
f 120//4 119//13 54//9
f 1//1 122//20 84//16
f 68//17 78//13 122//20
f 120//4 121//17 119//13
f 16//4 119//13 121//17
f 122//20 1//1 20//8
f 1//1 4//4 20//8
f 4//4 5//1 20//8
f 5//1 8//4 20//8
f 17//5 20//8 8//4
f 17//5 8//4 9//1
f 17//5 9//1 11//4
f 17//5 11//4 13//1
f 17//5 13//1 16//4
f 17//5 16//4 121//17
f 92//14 85//3 62//7
f 32//7 49//15 60//10
f 67//14 65//3 49//15
f 60//10 49//15 65//3
f 77//14 76//3 81//2
f 77//14 81//2 80//15
f 21//3 45//15 76//3
f 73//10 21//3 76//3
f 76//3 45//15 81//2
f 44//14 81//2 45//15
f 72//11 81//2 44//14
f 70//6 69//18 80//15
f 77//14 80//15 69//18
f 69//18 101//19 77//14
f 83//15 77//14 101//19
usemtl color_15277357
f 123//16 124//15 125//2
f 123//16 125//2 126//1
f 127//6 128//5 129//15
f 130//16 129//15 128//5
f 131//6 132//5 133//11
f 134//12 133//11 132//5
f 135//1 136//2 133//11
f 135//1 133//11 134//12
f 132//5 131//6 137//7
f 132//5 137//7 138//8
f 139//12 140//11 141//6
f 139//12 141//6 142//5
f 143//10 144//9 145//7
f 146//8 145//7 144//9
f 138//8 137//7 147//14
f 138//8 147//14 148//13
f 144//9 143//10 140//11
f 144//9 140//11 139//12
f 149//5 150//6 145//7
f 149//5 145//7 146//8
f 151//16 152//15 150//6
f 151//16 150//6 149//5
f 142//5 141//6 152//15
f 142//5 152//15 151//16
f 153//15 154//16 147//14
f 148//13 147//14 154//16
f 155//16 156//15 136//2
f 155//16 136//2 135//1
f 154//16 153//15 157//2
f 154//16 157//2 158//1
f 159//4 160//3 161//13
f 120//4 99//3 162//14
f 120//4 162//14 163//13
f 164//4 165//3 166//14
f 164//4 166//14 167//13
f 168//4 169//3 170//14
f 168//4 170//14 171//13
f 161//13 160//3 172//14
f 145//7 150//6 152//15
f 141//6 140//11 152//15
f 140//11 143//10 152//15
f 145//7 152//15 143//10
f 133//11 136//2 147//14
f 153//15 147//14 136//2
f 153//15 101//19 157//2
f 136//2 173//10 153//15
f 156//15 173//10 136//2
f 165//3 170//14 174//11
f 170//14 169//3 174//11
f 169//3 172//14 174//11
f 102//18 174//11 172//14
f 102//18 172//14 160//3
f 162//14 102//18 160//3
f 99//3 102//18 162//14
f 175//9 173//10 174//11
f 175//9 174//11 176//12
f 124//15 167//13 166//14
f 124//15 123//16 167//13
f 155//16 177//13 156//15
f 178//14 156//15 177//13
f 157//2 69//18 179//11
f 180//7 162//14 160//3
f 180//7 160//3 181//10
f 182//3 183//10 184//7
f 182//3 184//7 185//14
f 186//11 187//10 188//15
f 186//11 188//15 189//6
f 190//6 191//15 192//7
f 187//10 193//7 188//15
f 194//6 188//15 193//7
f 195//10 192//7 191//15
f 169//3 195//10 191//15
f 169//3 191//15 172//14
f 165//3 196//10 197//7
f 165//3 197//7 170//14
f 198//6 199//15 200//14
f 198//6 200//14 201//7
f 129//15 200//14 125//2
f 202//11 125//2 200//14
f 202//11 200//14 199//15
f 202//11 199//15 203//6
f 127//6 129//15 185//14
f 204//7 127//6 185//14
f 182//3 185//14 129//15
f 129//15 125//2 182//3
f 178//14 182//3 125//2
f 178//14 125//2 124//15
f 133//11 147//14 131//6
f 69//18 157//2 101//19
f 137//7 131//6 147//14
f 205//12 179//11 69//18
f 205//12 69//18 68//17
f 205//12 158//1 179//11
f 157//2 179//11 158//1
f 102//18 176//12 174//11
f 176//12 102//18 121//17
f 175//9 101//19 173//10
f 122//20 101//19 175//9
f 175//9 176//12 123//16
f 177//13 175//9 123//16
f 155//16 175//9 177//13
f 167//13 123//16 176//12
f 206//8 180//7 181//10
f 206//8 181//10 207//9
f 207//9 181//10 160//3
f 207//9 160//3 159//4
f 163//13 162//14 180//7
f 163//13 180//7 206//8
f 128//5 127//6 204//7
f 128//5 204//7 208//8
f 209//8 184//7 183//10
f 209//8 183//10 210//9
f 210//9 183//10 182//3
f 210//9 182//3 211//4
f 212//13 185//14 184//7
f 212//13 184//7 209//8
f 211//4 182//3 178//14
f 211//4 178//14 177//13
f 208//8 204//7 185//14
f 208//8 185//14 212//13
f 213//12 186//11 189//6
f 213//12 189//6 214//5
f 215//8 187//10 216//9
f 216//9 187//10 186//11
f 216//9 186//11 213//12
f 189//6 188//15 217//16
f 189//6 217//16 214//5
f 218//8 190//6 192//7
f 219//5 194//6 193//7
f 219//5 193//7 215//8
f 187//10 215//8 193//7
f 218//8 192//7 195//10
f 218//8 195//10 220//9
f 217//16 188//15 219//5
f 219//5 188//15 194//6
f 221//8 197//7 196//10
f 221//8 196//10 222//9
f 222//9 196//10 165//3
f 222//9 165//3 164//4
f 223//5 190//6 218//8
f 223//5 224//16 191//15
f 223//5 191//15 190//6
f 168//4 220//9 169//3
f 195//10 169//3 220//9
f 161//13 172//14 191//15
f 161//13 191//15 224//16
f 197//7 221//8 170//14
f 171//13 170//14 221//8
f 225//12 202//11 203//6
f 225//12 203//6 226//5
f 126//1 125//2 202//11
f 126//1 202//11 225//12
f 227//5 198//6 201//7
f 227//5 201//7 228//8
f 228//8 201//7 200//14
f 228//8 200//14 229//13
f 230//16 199//15 198//6
f 230//16 198//6 227//5
f 229//13 200//14 129//15
f 229//13 129//15 130//16
f 226//5 203//6 199//15
f 226//5 199//15 230//16
f 163//13 206//8 207//9
f 163//13 207//9 159//4
f 210//9 211//4 212//13
f 210//9 212//13 209//8
f 214//5 217//16 213//12
f 216//9 213//12 217//16
f 216//9 217//16 215//8
f 218//8 220//9 224//16
f 217//16 219//5 215//8
f 223//5 218//8 224//16
f 220//9 168//4 224//16
f 161//13 224//16 168//4
f 171//13 221//8 164//4
f 222//9 164//4 221//8
f 228//8 229//13 230//16
f 228//8 230//16 227//5
f 226//5 230//16 225//12
f 230//16 229//13 225//12
f 126//1 225//12 229//13
f 126//1 229//13 130//16
f 208//8 212//13 130//16
f 128//5 208//8 130//16
f 126//1 130//16 212//13
f 212//13 211//4 126//1
f 123//16 126//1 211//4
f 123//16 211//4 177//13
f 158//1 205//12 68//17
f 151//16 149//5 146//8
f 146//8 144//9 151//16
f 144//9 139//12 151//16
f 142//5 151//16 139//12
f 138//8 148//13 132//5
f 134//12 132//5 148//13
f 135//1 134//12 148//13
f 135//1 148//13 154//16
f 122//20 175//9 154//16
f 158//1 122//20 154//16
f 68//17 122//20 158//1
f 135//1 154//16 175//9
f 155//16 135//1 175//9
f 121//17 120//4 163//13
f 121//17 163//13 159//4
f 121//17 159//4 161//13
f 168//4 176//12 161//13
f 171//13 176//12 168//4
f 164//4 176//12 171//13
f 167//13 176//12 164//4
f 121//17 161//13 176//12
f 101//19 153//15 173//10
f 156//15 178//14 173//10
f 178//14 124//15 173//10
f 174//11 173//10 124//15
f 174//11 124//15 166//14
f 166//14 165//3 174//11
